<?xml version="1.0" encoding="UTF-8"?>
<!DOCTYPE svg PUBLIC "-//W3C//DTD SVG 1.1//EN" "http://www.w3.org/Graphics/SVG/1.1/DTD/svg11.dtd">
<!-- Creator: CorelDRAW X7 -->
<svg xmlns="http://www.w3.org/2000/svg" xml:space="preserve" width="0.999992in" height="0.999992in" version="1.1" style="shape-rendering:geometricPrecision; text-rendering:geometricPrecision; image-rendering:optimizeQuality; fill-rule:evenodd; clip-rule:evenodd"
viewBox="0 0 1000 1000"
 xmlns:xlink="http://www.w3.org/1999/xlink">
 <defs>
  <style type="text/css">
   <![CDATA[
    .fil0 {fill:black;fill-rule:nonzero}
   ]]>
  </style>
 </defs>
 <g id="Layer_x0020_1">
  <metadata id="CorelCorpID_0Corel-Layer"/>
  <g>
   <path class="fil0" d="M105 319c10,5 21,8 33,10 6,1 12,2 18,3 1,-24 7,-48 19,-69 13,-24 32,-44 56,-57 25,-12 54,-17 87,-11 29,5 62,20 96,48 13,-26 28,-48 44,-67 19,-23 40,-40 61,-54 -5,-17 -15,-30 -27,-41l0 0 0 0c-16,-13 -37,-21 -60,-22 -24,-2 -50,3 -75,16 -38,19 -74,54 -99,108 -5,10 -17,14 -27,9 -1,0 -3,-1 -4,-2l0 0c-55,-47 -103,-55 -136,-41 -15,6 -28,17 -37,30 -9,13 -14,29 -14,46 -1,34 18,71 65,94zm25 49c-14,-3 -27,-6 -40,-12 -1,0 -2,0 -3,-1 -62,-31 -88,-82 -87,-131 1,-24 8,-48 21,-67 13,-20 32,-36 55,-45 42,-17 97,-12 157,32 29,-51 66,-85 106,-105 32,-16 65,-22 96,-20 31,2 60,13 83,32l0 0c22,18 38,45 44,77l0 0c1,8 -3,17 -10,21 -22,12 -44,30 -64,53 -18,21 -35,48 -49,81l0 0c-1,2 -2,4 -4,5 -7,9 -20,9 -28,1 -35,-32 -68,-50 -97,-55 -23,-4 -43,-1 -60,8 -17,8 -31,23 -40,40 -11,20 -16,45 -14,69 0,2 0,3 0,4 0,11 -10,20 -21,19 -15,-1 -30,-3 -45,-6zm-25 -49l0 0 0 0z"/>
  </g>
  <path class="fil0" d="M269 455c26,12 56,18 89,20 32,1 66,0 103,-4l60 -125c4,-8 13,-12 21,-11l1 0 0 0 121 18c11,2 19,12 17,23 0,2 -1,3 -1,5l-27 70c36,-3 73,-6 110,-6 45,0 90,2 137,8 36,-9 54,-33 59,-59 3,-15 1,-32 -5,-47 -6,-15 -17,-30 -30,-42 -33,-27 -87,-37 -157,-6 -10,5 -22,1 -27,-10 -1,-3 -2,-7 -1,-11 7,-52 -7,-92 -32,-117 -14,-14 -33,-24 -54,-29 -21,-4 -45,-3 -69,4 -53,16 -109,63 -145,147 -4,10 -16,15 -26,10 -3,-1 -5,-2 -7,-4 -58,-54 -109,-65 -146,-52 -18,7 -33,19 -44,35 -12,17 -19,37 -20,59 -3,44 18,94 73,124zm87 59c-38,-2 -73,-8 -104,-22l0 0 -1 -1c-72,-39 -99,-104 -95,-163 2,-29 11,-56 27,-78 15,-23 37,-41 64,-51 45,-15 103,-7 167,44 41,-81 101,-128 159,-146 31,-9 61,-10 89,-4 28,6 53,20 74,40 27,28 44,68 45,118 72,-23 130,-8 168,24 19,16 34,36 42,58 8,22 11,45 7,67 -7,43 -37,80 -93,93l0 0c-2,0 -4,1 -7,0 -46,-6 -91,-8 -134,-8 -44,0 -86,3 -127,7 -2,1 -4,1 -7,0l-10 -2c-1,0 -2,0 -3,-1 -11,-3 -16,-15 -12,-25l29 -75 -83 -12 -59 122 0 0c-3,6 -9,10 -16,11 -43,4 -83,6 -120,4z"/>
  <path class="fil0" d="M542 335l1 0 0 0 121 18c11,2 19,12 17,23 0,2 -1,3 -1,5l-29 74 93 17c11,2 18,12 16,23 0,3 -1,6 -3,8l0 0 -259 377c-6,10 -19,12 -28,6 -7,-6 -10,-15 -7,-23l82 -284 -99 -20c-11,-2 -18,-12 -16,-23 0,-2 1,-4 2,-6l89 -184c4,-8 13,-12 21,-11zm92 54l-83 -12 -72 148 96 19 0 0 1 0c11,3 17,14 14,25l-54 186 171 -249 -85 -15c-2,-1 -4,-1 -5,-2 -10,-4 -16,-15 -12,-25l29 -75z"/>
  <path class="fil0" d="M146 791c-6,10 -19,12 -28,6 -9,-6 -12,-18 -6,-27l21 -34c6,-9 19,-12 28,-6 9,6 12,18 6,28l-21 33z"/>
  <path class="fil0" d="M219 601c6,-9 19,-12 28,-6 9,6 12,18 6,28l-21 33c-6,10 -19,12 -28,6 -9,-5 -12,-18 -6,-27l21 -34z"/>
  <path class="fil0" d="M305 831c-6,9 -18,12 -27,6 -10,-6 -13,-18 -7,-28l22 -33c6,-10 18,-12 28,-6 9,6 12,18 6,27l-22 34z"/>
  <path class="fil0" d="M219 966c-6,9 -18,12 -28,6 -9,-6 -12,-18 -6,-28l22 -33c6,-10 18,-12 27,-6 10,5 13,18 7,27l-22 34z"/>
  <path class="fil0" d="M379 641c6,-9 18,-12 28,-6 9,6 12,18 6,27l-22 34c-6,9 -18,12 -27,6 -10,-6 -12,-18 -7,-27l22 -34z"/>
  <path class="fil0" d="M730 782c-5,9 -18,12 -27,6 -9,-6 -12,-19 -6,-28l21 -34c6,-9 19,-12 28,-6 9,6 12,19 6,28l-22 34z"/>
  <path class="fil0" d="M804 592c6,-10 19,-12 28,-7 9,6 12,19 6,28l-21 34c-6,9 -19,12 -28,6 -9,-6 -12,-18 -6,-28l21 -33z"/>
 </g>
</svg>
